# xmcd CD database file
#
# Track frame offsets:
#	150
#	22907
#	43240
#	60757
#	80877
#	104162
#	126265
#	144192
#	163255
#	182360
#	202175
#	221817
#	251845
#
# Disc length: 4440 seconds
#
# Revision: 0
# Processed by: cddbd v1.5.1PL0 Copyright (c) Steve Scherf et al.
# Submitted via: CDex 1.51
#
DISCID=c211560d
DTITLE=今井絵理子 - Single Collection 〜Stairway〜
DYEAR=2004
DGENRE=JPop
TTITLE0=冷たくしないで
TTITLE1=EVERYDAY, BE WITH YOU
TTITLE2=Red Beat of My Life
TTITLE3=Luv is Magic
TTITLE4=in the Name of Love
TTITLE5=identity
TTITLE6=Set Me Free!
TTITLE7=Don't stop the music
TTITLE8=Our Relation
TTITLE9=Butterfly
TTITLE10=Can U feel me?
TTITLE11=Stairway
TTITLE12=CCCD
EXTD=YEAR: 2004
EXTT0=
EXTT1=
EXTT2=
EXTT3=
EXTT4=
EXTT5=
EXTT6=
EXTT7=
EXTT8=
EXTT9=
EXTT10=
EXTT11=
EXTT12=
PLAYORDER=
